<svg width="1200" height="320" viewBox="0 0 1200 320" fill="none" xmlns="http://www.w3.org/2000/svg" role="img" aria-labelledby="title desc">
  <title id="title">Mlers0229 Profile Banner</title>
  <desc id="desc">A custom banner for the Mlers0229 GitHub profile README.</desc>
  <defs>
    <linearGradient id="bg" x1="64" y1="24" x2="1116" y2="296" gradientUnits="userSpaceOnUse">
      <stop stop-color="#0F172A"/>
      <stop offset="0.52" stop-color="#111827"/>
      <stop offset="1" stop-color="#1D4ED8"/>
    </linearGradient>
    <linearGradient id="glow" x1="0" y1="0" x2="1" y2="1">
      <stop stop-color="#38BDF8" stop-opacity="0.9"/>
      <stop offset="1" stop-color="#F59E0B" stop-opacity="0.75"/>
    </linearGradient>
    <filter id="blur" x="-20%" y="-20%" width="140%" height="140%">
      <feGaussianBlur stdDeviation="28"/>
    </filter>
  </defs>

  <rect x="12" y="12" width="1176" height="296" rx="28" fill="url(#bg)"/>
  <rect x="12.5" y="12.5" width="1175" height="295" rx="27.5" stroke="#93C5FD" stroke-opacity="0.18"/>

  <g opacity="0.16">
    <path d="M84 24V308" stroke="#E2E8F0"/>
    <path d="M180 24V308" stroke="#E2E8F0"/>
    <path d="M276 24V308" stroke="#E2E8F0"/>
    <path d="M372 24V308" stroke="#E2E8F0"/>
    <path d="M468 24V308" stroke="#E2E8F0"/>
    <path d="M564 24V308" stroke="#E2E8F0"/>
    <path d="M660 24V308" stroke="#E2E8F0"/>
    <path d="M756 24V308" stroke="#E2E8F0"/>
    <path d="M852 24V308" stroke="#E2E8F0"/>
    <path d="M948 24V308" stroke="#E2E8F0"/>
    <path d="M1044 24V308" stroke="#E2E8F0"/>
    <path d="M1140 24V308" stroke="#E2E8F0"/>
    <path d="M24 68H1176" stroke="#E2E8F0"/>
    <path d="M24 124H1176" stroke="#E2E8F0"/>
    <path d="M24 180H1176" stroke="#E2E8F0"/>
    <path d="M24 236H1176" stroke="#E2E8F0"/>
    <path d="M24 292H1176" stroke="#E2E8F0"/>
  </g>

  <circle cx="1036" cy="82" r="88" fill="#38BDF8" fill-opacity="0.22" filter="url(#blur)"/>
  <circle cx="948" cy="252" r="76" fill="#F59E0B" fill-opacity="0.18" filter="url(#blur)"/>

  <rect x="64" y="56" width="470" height="34" rx="17" fill="#0B1220" fill-opacity="0.72" stroke="#38BDF8" stroke-opacity="0.35"/>
  <text x="88" y="78" fill="#7DD3FC" font-family="'Segoe UI', Arial, sans-serif" font-size="16" letter-spacing="2">PROFILE README / BUILT WITH INTENT</text>

  <text x="64" y="142" fill="#F8FAFC" font-family="'Segoe UI', Arial, sans-serif" font-size="54" font-weight="700">Mlers0229</text>
  <text x="64" y="186" fill="#BFDBFE" font-family="'Segoe UI', Arial, sans-serif" font-size="24">Student developer from Tianjin</text>
  <text x="64" y="220" fill="#E2E8F0" font-family="'Segoe UI', Arial, sans-serif" font-size="22">Rust + Tauri / Vue / Spring Boot / Practical Software</text>

  <rect x="64" y="246" width="194" height="38" rx="19" fill="#E0F2FE"/>
  <text x="92" y="271" fill="#0F172A" font-family="'Segoe UI', Arial, sans-serif" font-size="18" font-weight="700">BUILD USEFUL THINGS</text>

  <g transform="translate(724 58)">
    <rect x="0" y="0" width="392" height="204" rx="24" fill="#020617" fill-opacity="0.72" stroke="#93C5FD" stroke-opacity="0.26"/>
    <circle cx="28" cy="26" r="6" fill="#FB7185"/>
    <circle cx="50" cy="26" r="6" fill="#F59E0B"/>
    <circle cx="72" cy="26" r="6" fill="#22C55E"/>

    <text x="24" y="62" fill="#7DD3FC" font-family="'Cascadia Code', Consolas, monospace" font-size="16">const profile = {</text>
    <text x="40" y="92" fill="#E2E8F0" font-family="'Cascadia Code', Consolas, monospace" font-size="16">name: "Mlers0229",</text>
    <text x="40" y="122" fill="#E2E8F0" font-family="'Cascadia Code', Consolas, monospace" font-size="16">focus: ["desktop", "full-stack"],</text>
    <text x="40" y="152" fill="#E2E8F0" font-family="'Cascadia Code', Consolas, monospace" font-size="16">stack: ["Rust", "Tauri", "Vue"],</text>
    <text x="40" y="182" fill="#E2E8F0" font-family="'Cascadia Code', Consolas, monospace" font-size="16">goal: "ship practical projects"</text>
    <text x="24" y="212" fill="#7DD3FC" font-family="'Cascadia Code', Consolas, monospace" font-size="16">};</text>
  </g>

  <path d="M610 42C674 84 678 208 610 278" stroke="url(#glow)" stroke-width="3" stroke-linecap="round" stroke-dasharray="10 12" opacity="0.8"/>
</svg>
